<svg id="Group_45169" data-name="Group 45169" xmlns="http://www.w3.org/2000/svg" xmlns:xlink="http://www.w3.org/1999/xlink" width="19.969" height="12" viewBox="0 0 19.969 12">
  <defs>
    <clipPath id="clip-path">
      <path id="Path_75940" data-name="Path 75940" d="M12.249,8.368,10.723,12h2.992L14.5,9.975l-.239-.239-.769,1.933H11.223l1.389-3.3Zm4.012-3.693-1.1,2.774h4l-1.1-2.765h-.36l.973,2.434H15.65l.961-2.443Zm-2.435-.029-.984,2.373H13.2l.986-2.373Zm5.965-.855,3.361,7.877H20.824l-.982-2.5H15.565l.344.331h3.708L20.6,12h3.056L20.046,3.536ZM16.734,3.46h.356l.075-.194.075.195h.355l-.43-1.095ZM15.8,0,14.365,3.376h.362l1.3-3.045h2.315l.892,2.109.253-.253L18.557,0Z" transform="translate(-10.723)"/>
    </clipPath>
    <clipPath id="clip-path-2">
      <path id="Path_75941" data-name="Path 75941" d="M101.113,4.644V1.082h2.565V6.128Zm2.565,3.227v4.879h-2.565V6.426Z" transform="translate(-101.113 -1.082)"/>
    </clipPath>
    <clipPath id="clip-path-3">
      <path id="Path_75942" data-name="Path 75942" d="M0,46.7a.67.67,0,0,0,1.319.166H3.957l2.666,2.666a.677.677,0,1,0,.234-.234L4.095,46.537H1.319A.67.67,0,0,0,0,46.7" transform="translate(0 -46.032)"/>
    </clipPath>
    <clipPath id="clip-path-4">
      <path id="Path_75943" data-name="Path 75943" d="M27.329,1.756a.662.662,0,0,0,.1.341L24.759,4.762H19.346a.671.671,0,1,0,0,.331H24.9l2.763-2.763a.663.663,0,0,0,.34.1.671.671,0,1,0-.671-.671" transform="translate(-18.027 -1.085)"/>
    </clipPath>
    <clipPath id="clip-path-5">
      <path id="Path_75944" data-name="Path 75944" d="M85.166,20.142a.67.67,0,0,0,1.153.465l4.942,2.812v2.611a.671.671,0,1,0,.331,0v-2.8l-5.111-2.908a.67.67,0,1,0-1.316-.176" transform="translate(-85.166 -19.471)"/>
    </clipPath>
  </defs>
  <g id="Group_45160" data-name="Group 45160" transform="translate(1.641)">
    <g id="Group_45159" data-name="Group 45159" clip-path="url(#clip-path)">
      <rect id="Rectangle_11644" data-name="Rectangle 11644" width="12.931" height="12" transform="translate(0 0)"/>
    </g>
  </g>
  <g id="Group_45162" data-name="Group 45162" transform="translate(15.478 0.166)">
    <g id="Group_45161" data-name="Group 45161" clip-path="url(#clip-path-2)">
      <rect id="Rectangle_11645" data-name="Rectangle 11645" width="2.565" height="11.669" transform="translate(0 0)"/>
    </g>
  </g>
  <g id="Group_45164" data-name="Group 45164" transform="translate(0 7.046)">
    <g id="Group_45163" data-name="Group 45163" clip-path="url(#clip-path-3)">
      <rect id="Rectangle_11646" data-name="Rectangle 11646" width="7.869" height="4.514" transform="translate(0 0)"/>
    </g>
  </g>
  <g id="Group_45166" data-name="Group 45166" transform="translate(2.76 0.166)">
    <g id="Group_45165" data-name="Group 45165" clip-path="url(#clip-path-4)">
      <rect id="Rectangle_11647" data-name="Rectangle 11647" width="10.643" height="4.514" transform="translate(0 0)"/>
    </g>
  </g>
  <g id="Group_45168" data-name="Group 45168" transform="translate(13.037 2.981)">
    <g id="Group_45167" data-name="Group 45167" clip-path="url(#clip-path-5)">
      <rect id="Rectangle_11648" data-name="Rectangle 11648" width="6.932" height="7.877" transform="translate(0 0)"/>
    </g>
  </g>
</svg>
