<svg xmlns="http://www.w3.org/2000/svg" width="20.117" height="20.12" viewBox="0 0 20.117 20.12">
  <g id="Group_45323" data-name="Group 45323" transform="translate(-0.264 -0.264)">
    <path id="Path_75977" data-name="Path 75977" d="M10.326.264A10.06,10.06,0,1,0,20.381,10.322,10.072,10.072,0,0,0,10.326.264Zm0,1.828A8.22,8.22,0,1,1,4.5,4.5a8.21,8.21,0,0,1,5.824-2.405Zm-.014,3.646A.914.914,0,0,0,9.4,6.67V9.408H6.67a.914.914,0,0,0,0,1.828H9.4v2.739a.916.916,0,0,0,1.832,0V11.24h2.739a.916.916,0,1,0,0-1.832H11.237V6.67a.914.914,0,0,0-.924-.931Z" fill="#2c4bff" fill-rule="evenodd"/>
  </g>
</svg>
