<svg xmlns="http://www.w3.org/2000/svg" width="16.666" height="14" viewBox="0 0 16.666 14">
  <path id="traffic_icon" data-name="traffic icon" d="M53,632a2,2,0,0,1-2-2V620a2,2,0,0,1,2-2H65.667a2,2,0,0,1,2,2v10a2,2,0,0,1-2,2Zm12.667-1.333a.667.667,0,0,0,.667-.667v-4.132H64.148l-1.633,4.8ZM52.334,620v10a.667.667,0,0,0,.667.667h7.819L57.667,621.4,56.3,625.422a.665.665,0,0,1-.632.446H53a.653.653,0,1,1,0-1.306h2.186l1.779-5.229H53A.666.666,0,0,0,52.334,620Zm9.333,9.029,1.368-4.019a.665.665,0,0,1,.632-.447h2.666V620a.666.666,0,0,0-.667-.667h-7.3Z" transform="translate(-51 -618)"/>
</svg>
